<svg width="40" height="40" viewBox="0 0 40 40" fill="none" xmlns="http://www.w3.org/2000/svg">
<g clip-path="url(#clip0_4187_234534)">
<rect x="2" y="6.5" width="36" height="9" fill="#FF9933"/>
<rect x="2" y="15.5" width="36" height="9" fill="white"/>
<rect x="2" y="24.5" width="36" height="9" fill="#138808"/>
</g>
<rect x="1.625" y="6.125" width="36.75" height="27.75" stroke="white" stroke-width="0.75"/>
<path d="M20 23.5C21.933 23.5 23.5 21.933 23.5 20C23.5 18.067 21.933 16.5 20 16.5C18.067 16.5 16.5 18.067 16.5 20C16.5 21.933 18.067 23.5 20 23.5Z" fill="#000080"/>
<path d="M20 22.9531C21.631 22.9531 22.9531 21.631 22.9531 20C22.9531 18.369 21.631 17.0469 20 17.0469C18.369 17.0469 17.0469 18.369 17.0469 20C17.0469 21.631 18.369 22.9531 20 22.9531Z" fill="#F7F7F7"/>
<path d="M20.0876 18.9064L20.0001 19.4752L19.9126 18.9064L20.0001 17.2002L20.0876 18.9064ZM19.2756 17.2956L19.6326 18.9659L19.8644 19.4927L19.8014 18.9213L19.2756 17.2956ZM18.6001 17.5756L19.3771 19.0963L19.7376 19.5452L19.5293 19.0088L18.6001 17.5756ZM18.0199 18.0201L19.1644 19.2888L19.6291 19.6292L19.2887 19.1646L18.0199 18.0201ZM17.5754 18.6002L19.0087 19.5294L19.5451 19.7377L19.0962 19.3772L17.5754 18.6002ZM17.2954 19.2757L18.9212 19.8016L19.4926 19.8646L18.9658 19.6327L17.2954 19.2757ZM17.2001 20.0002L18.9063 20.0877L19.4751 20.0002L18.9063 19.9127L17.2001 20.0002ZM17.2954 20.7247L18.9658 20.3677L19.4926 20.1358L18.9212 20.1988L17.2954 20.7247ZM17.5754 21.4002L19.0962 20.6232L19.5451 20.2627L19.0087 20.4709L17.5754 21.4002ZM18.0199 21.9803L19.2887 20.8358L19.6291 20.3712L19.1644 20.7116L18.0199 21.9803ZM18.6001 22.4248L19.5293 20.9916L19.7376 20.4552L19.3771 20.9041L18.6001 22.4248ZM19.2756 22.7048L19.8014 21.0791L19.8644 20.5077L19.6326 21.0344L19.2756 22.7048ZM20.0001 22.8002L20.0876 21.0939L20.0001 20.5252L19.9126 21.0939L20.0001 22.8002ZM20.7246 22.7048L20.3676 21.0344L20.1357 20.5077L20.1987 21.0791L20.7246 22.7048ZM21.4001 22.4248L20.6231 20.9041L20.2626 20.4552L20.4708 20.9916L21.4001 22.4248ZM21.9802 21.9803L20.8357 20.7116L20.3711 20.3712L20.7114 20.8358L21.9802 21.9803ZM22.4247 21.4002L20.9914 20.4709L20.4551 20.2627L20.9039 20.6232L22.4247 21.4002ZM22.7047 20.7247L21.0789 20.1988L20.5076 20.1358L21.0343 20.3677L22.7047 20.7247ZM22.8001 20.0002L21.0938 19.9127L20.5251 20.0002L21.0938 20.0877L22.8001 20.0002ZM22.7047 19.2757L21.0343 19.6327L20.5076 19.8646L21.0789 19.8016L22.7047 19.2757ZM22.4247 18.6002L20.9039 19.3772L20.4551 19.7377L20.9914 19.5294L22.4247 18.6002ZM21.9802 18.0201L20.7114 19.1646L20.3711 19.6292L20.8357 19.2888L21.9802 18.0201ZM21.4001 17.5756L20.4708 19.0088L20.2626 19.5452L20.6231 19.0963L21.4001 17.5756ZM20.7246 17.2956L20.1987 18.9213L20.1357 19.4927L20.3676 18.9659L20.7246 17.2956Z" fill="#6666B3"/>
<path d="M19.6151 17.2516C19.7117 17.2516 19.7901 17.1733 19.7901 17.0766C19.7901 16.98 19.7117 16.9016 19.6151 16.9016C19.5184 16.9016 19.4401 16.98 19.4401 17.0766C19.4401 17.1733 19.5184 17.2516 19.6151 17.2516Z" fill="#000080"/>
<path d="M18.8713 17.4511C18.9679 17.4511 19.0463 17.3727 19.0463 17.2761C19.0463 17.1794 18.9679 17.1011 18.8713 17.1011C18.7746 17.1011 18.6963 17.1794 18.6963 17.2761C18.6963 17.3727 18.7746 17.4511 18.8713 17.4511Z" fill="#000080"/>
<path d="M18.2044 17.8354C18.3011 17.8354 18.3794 17.757 18.3794 17.6604C18.3794 17.5637 18.3011 17.4854 18.2044 17.4854C18.1078 17.4854 18.0294 17.5637 18.0294 17.6604C18.0294 17.757 18.1078 17.8354 18.2044 17.8354Z" fill="#000080"/>
<path d="M17.6602 18.3795C17.7569 18.3795 17.8352 18.3012 17.8352 18.2045C17.8352 18.1079 17.7569 18.0295 17.6602 18.0295C17.5636 18.0295 17.4852 18.1079 17.4852 18.2045C17.4852 18.3012 17.5636 18.3795 17.6602 18.3795Z" fill="#000080"/>
<path d="M17.2761 19.0463C17.3727 19.0463 17.4511 18.9679 17.4511 18.8713C17.4511 18.7746 17.3727 18.6963 17.2761 18.6963C17.1794 18.6963 17.1011 18.7746 17.1011 18.8713C17.1011 18.9679 17.1794 19.0463 17.2761 19.0463Z" fill="#000080"/>
<path d="M17.0766 19.7899C17.1733 19.7899 17.2516 19.7116 17.2516 19.6149C17.2516 19.5183 17.1733 19.4399 17.0766 19.4399C16.98 19.4399 16.9016 19.5183 16.9016 19.6149C16.9016 19.7116 16.98 19.7899 17.0766 19.7899Z" fill="#000080"/>
<path d="M17.0766 20.56C17.1733 20.56 17.2516 20.4816 17.2516 20.385C17.2516 20.2883 17.1733 20.21 17.0766 20.21C16.98 20.21 16.9016 20.2883 16.9016 20.385C16.9016 20.4816 16.98 20.56 17.0766 20.56Z" fill="#000080"/>
<path d="M17.2761 21.3039C17.3727 21.3039 17.4511 21.2255 17.4511 21.1289C17.4511 21.0322 17.3727 20.9539 17.2761 20.9539C17.1794 20.9539 17.1011 21.0322 17.1011 21.1289C17.1011 21.2255 17.1794 21.3039 17.2761 21.3039Z" fill="#000080"/>
<path d="M17.6602 21.9706C17.7569 21.9706 17.8352 21.8923 17.8352 21.7956C17.8352 21.699 17.7569 21.6206 17.6602 21.6206C17.5636 21.6206 17.4852 21.699 17.4852 21.7956C17.4852 21.8923 17.5636 21.9706 17.6602 21.9706Z" fill="#000080"/>
<path d="M18.2044 22.5148C18.3011 22.5148 18.3794 22.4364 18.3794 22.3398C18.3794 22.2431 18.3011 22.1648 18.2044 22.1648C18.1078 22.1648 18.0294 22.2431 18.0294 22.3398C18.0294 22.4364 18.1078 22.5148 18.2044 22.5148Z" fill="#000080"/>
<path d="M18.8713 22.8988C18.9679 22.8988 19.0463 22.8205 19.0463 22.7238C19.0463 22.6272 18.9679 22.5488 18.8713 22.5488C18.7746 22.5488 18.6963 22.6272 18.6963 22.7238C18.6963 22.8205 18.7746 22.8988 18.8713 22.8988Z" fill="#000080"/>
<path d="M19.6151 23.0983C19.7117 23.0983 19.7901 23.0199 19.7901 22.9233C19.7901 22.8266 19.7117 22.7483 19.6151 22.7483C19.5184 22.7483 19.4401 22.8266 19.4401 22.9233C19.4401 23.0199 19.5184 23.0983 19.6151 23.0983Z" fill="#000080"/>
<path d="M20.385 23.0983C20.4816 23.0983 20.56 23.0199 20.56 22.9233C20.56 22.8266 20.4816 22.7483 20.385 22.7483C20.2883 22.7483 20.21 22.8266 20.21 22.9233C20.21 23.0199 20.2883 23.0983 20.385 23.0983Z" fill="#000080"/>
<path d="M21.1287 22.8988C21.2254 22.8988 21.3037 22.8205 21.3037 22.7238C21.3037 22.6272 21.2254 22.5488 21.1287 22.5488C21.0321 22.5488 20.9537 22.6272 20.9537 22.7238C20.9537 22.8205 21.0321 22.8988 21.1287 22.8988Z" fill="#000080"/>
<path d="M21.7954 22.5148C21.892 22.5148 21.9704 22.4364 21.9704 22.3398C21.9704 22.2431 21.892 22.1648 21.7954 22.1648C21.6987 22.1648 21.6204 22.2431 21.6204 22.3398C21.6204 22.4364 21.6987 22.5148 21.7954 22.5148Z" fill="#000080"/>
<path d="M22.3397 21.9706C22.4363 21.9706 22.5147 21.8923 22.5147 21.7956C22.5147 21.699 22.4363 21.6206 22.3397 21.6206C22.243 21.6206 22.1647 21.699 22.1647 21.7956C22.1647 21.8923 22.243 21.9706 22.3397 21.9706Z" fill="#000080"/>
<path d="M22.7238 21.3039C22.8205 21.3039 22.8988 21.2255 22.8988 21.1289C22.8988 21.0322 22.8205 20.9539 22.7238 20.9539C22.6272 20.9539 22.5488 21.0322 22.5488 21.1289C22.5488 21.2255 22.6272 21.3039 22.7238 21.3039Z" fill="#000080"/>
<path d="M22.9233 20.56C23.0199 20.56 23.0983 20.4816 23.0983 20.385C23.0983 20.2883 23.0199 20.21 22.9233 20.21C22.8266 20.21 22.7483 20.2883 22.7483 20.385C22.7483 20.4816 22.8266 20.56 22.9233 20.56Z" fill="#000080"/>
<path d="M22.9233 19.7899C23.0199 19.7899 23.0983 19.7116 23.0983 19.6149C23.0983 19.5183 23.0199 19.4399 22.9233 19.4399C22.8266 19.4399 22.7483 19.5183 22.7483 19.6149C22.7483 19.7116 22.8266 19.7899 22.9233 19.7899Z" fill="#000080"/>
<path d="M22.7238 19.0463C22.8205 19.0463 22.8988 18.9679 22.8988 18.8713C22.8988 18.7746 22.8205 18.6963 22.7238 18.6963C22.6272 18.6963 22.5488 18.7746 22.5488 18.8713C22.5488 18.9679 22.6272 19.0463 22.7238 19.0463Z" fill="#000080"/>
<path d="M22.3397 18.3795C22.4363 18.3795 22.5147 18.3012 22.5147 18.2045C22.5147 18.1079 22.4363 18.0295 22.3397 18.0295C22.243 18.0295 22.1647 18.1079 22.1647 18.2045C22.1647 18.3012 22.243 18.3795 22.3397 18.3795Z" fill="#000080"/>
<path d="M21.7954 17.8354C21.892 17.8354 21.9704 17.757 21.9704 17.6604C21.9704 17.5637 21.892 17.4854 21.7954 17.4854C21.6987 17.4854 21.6204 17.5637 21.6204 17.6604C21.6204 17.757 21.6987 17.8354 21.7954 17.8354Z" fill="#000080"/>
<path d="M21.1287 17.4511C21.2254 17.4511 21.3037 17.3727 21.3037 17.2761C21.3037 17.1794 21.2254 17.1011 21.1287 17.1011C21.0321 17.1011 20.9537 17.1794 20.9537 17.2761C20.9537 17.3727 21.0321 17.4511 21.1287 17.4511Z" fill="#000080"/>
<path d="M20.385 17.2516C20.4816 17.2516 20.56 17.1733 20.56 17.0766C20.56 16.98 20.4816 16.9016 20.385 16.9016C20.2883 16.9016 20.21 16.98 20.21 17.0766C20.21 17.1733 20.2883 17.2516 20.385 17.2516Z" fill="#000080"/>
<path d="M19.9999 20.7876C20.4348 20.7876 20.7874 20.4351 20.7874 20.0001C20.7874 19.5652 20.4348 19.2126 19.9999 19.2126C19.565 19.2126 19.2124 19.5652 19.2124 20.0001C19.2124 20.4351 19.565 20.7876 19.9999 20.7876Z" fill="#000080"/>
<defs>
<clipPath id="clip0_4187_234534">
<rect x="2" y="6.5" width="36" height="27" fill="white"/>
</clipPath>
</defs>
</svg>
